<svg width="52" height="50" viewBox="0 0 52 50" fill="none" xmlns="http://www.w3.org/2000/svg">
<g clip-path="url(#clip0_104_187)">
<path d="M33.0229 25C33.0229 31.704 32.1294 37.7425 30.7051 42.0792C29.9917 44.2516 29.1584 45.9554 28.2693 47.1005C27.3726 48.2553 26.5088 48.7346 25.7317 48.7346C24.9545 48.7346 24.0907 48.2553 23.194 47.1005C22.3049 45.9554 21.4717 44.2516 20.7582 42.0792C19.3339 37.7425 18.4404 31.704 18.4404 25C18.4404 18.296 19.3339 12.2576 20.7582 7.92085C21.4717 5.74843 22.3049 4.04464 23.194 2.89956C24.0907 1.74475 24.9545 1.26547 25.7317 1.26547C26.5088 1.26547 27.3726 1.74475 28.2693 2.89956C29.1584 4.04464 29.9917 5.74843 30.7051 7.92085C32.1294 12.2576 33.0229 18.296 33.0229 25Z" stroke="url(#paint0_linear_104_187)" stroke-width="1.5"/>
<path d="M26 31.7242C19.0209 31.7242 12.7318 30.8643 8.21215 29.4919C5.94764 28.8043 4.1697 28.0007 2.9745 27.1426C1.76131 26.2717 1.28603 25.4504 1.28603 24.7423C1.28603 24.0342 1.76131 23.2128 2.9745 22.3419C4.1697 21.4839 5.94764 20.6802 8.21215 19.9926C12.7318 18.6202 19.0209 17.7603 26 17.7603C32.979 17.7603 39.2681 18.6202 43.7878 19.9926C46.0523 20.6802 47.8302 21.4839 49.0254 22.3419C50.2386 23.2128 50.7139 24.0342 50.7139 24.7423C50.7139 25.4504 50.2386 26.2717 49.0254 27.1426C47.8302 28.0007 46.0523 28.8043 43.7878 29.4919C39.2681 30.8643 32.979 31.7242 26 31.7242Z" stroke="url(#paint1_linear_104_187)" stroke-width="1.5"/>
<path d="M25.7319 9.27835L28.4612 22.1179L41.8144 24.7423L28.4612 27.3666L25.7319 40.2062L23.0026 27.3666L9.64941 24.7423L23.0026 22.1179L25.7319 9.27835Z" fill="url(#paint2_linear_104_187)" stroke="#F8F0FD" stroke-width="1.5"/>
</g>
<defs>
<linearGradient id="paint0_linear_104_187" x1="17.6904" y1="25" x2="32.1592" y2="23.0803" gradientUnits="userSpaceOnUse">
<stop stop-color="#FF62B7"/>
<stop offset="1" stop-color="#9F53FF"/>
</linearGradient>
<linearGradient id="paint1_linear_104_187" x1="26" y1="17.0103" x2="27.7108" y2="30.9576" gradientUnits="userSpaceOnUse">
<stop stop-color="#FF62B7"/>
<stop offset="1" stop-color="#9F53FF"/>
</linearGradient>
<linearGradient id="paint2_linear_104_187" x1="9.64941" y1="24.7423" x2="34.6781" y2="14.2266" gradientUnits="userSpaceOnUse">
<stop stop-color="#FF62B7"/>
<stop offset="1" stop-color="#9F53FF"/>
</linearGradient>
<clipPath id="clip0_104_187">
<rect width="52" height="50" fill="white"/>
</clipPath>
</defs>
</svg>
